<?xml version="1.0" encoding="UTF-8" standalone="no"?>
<!-- Created with Inkscape (http://www.inkscape.org/) -->

<svg
   xmlns:dc="http://purl.org/dc/elements/1.1/"
   xmlns:cc="http://creativecommons.org/ns#"
   xmlns:rdf="http://www.w3.org/1999/02/22-rdf-syntax-ns#"
   xmlns:svg="http://www.w3.org/2000/svg"
   xmlns="http://www.w3.org/2000/svg"
   xmlns:sodipodi="http://sodipodi.sourceforge.net/DTD/sodipodi-0.dtd"
   xmlns:inkscape="http://www.inkscape.org/namespaces/inkscape"
   width="56"
   height="56"
   viewBox="0 0 14.816667 14.816667"
   version="1.1"
   id="svg8"
   inkscape:version="0.92.3 (2405546, 2018-03-11)"
   sodipodi:docname="icon-56-56.svg">
  <defs
     id="defs2" />
  <sodipodi:namedview
     id="base"
     pagecolor="#ffffff"
     bordercolor="#666666"
     borderopacity="1.0"
     inkscape:pageopacity="0.0"
     inkscape:pageshadow="2"
     inkscape:zoom="5.6953477"
     inkscape:cx="2.3870013"
     inkscape:cy="11.780134"
     inkscape:document-units="mm"
     inkscape:current-layer="g1078"
     showgrid="false"
     showguides="true"
     units="px"
     inkscape:window-width="1280"
     inkscape:window-height="745"
     inkscape:window-x="0"
     inkscape:window-y="27"
     inkscape:window-maximized="1"
     fit-margin-top="0"
     fit-margin-left="0"
     fit-margin-right="0"
     fit-margin-bottom="0" />
  <metadata
     id="metadata5">
    <rdf:RDF>
      <cc:Work
         rdf:about="">
        <dc:format>image/svg+xml</dc:format>
        <dc:type
           rdf:resource="http://purl.org/dc/dcmitype/StillImage" />
        <dc:title />
      </cc:Work>
    </rdf:RDF>
  </metadata>
  <g
     inkscape:label="Ebene 1"
     inkscape:groupmode="layer"
     id="layer1"
     transform="translate(0,-282.18333)">
    <g
       id="g1078"
       transform="matrix(0.51017607,0,0,0.51017607,-0.15077544,145.62848)"
       style="stroke:none">
      <rect
         ry="0"
         y="267.6622"
         x="0.2955361"
         height="29.042261"
         width="29.042261"
         id="rect1045"
         style="fill:#ff0000;fill-opacity:0;stroke:none;stroke-width:0.5910722;stroke-opacity:1" />
      <rect
         ry="1.8819352"
         y="268.95416"
         x="1.5875007"
         height="26.458332"
         width="26.458332"
         id="rect4713"
         style="opacity:1;fill:#fff200;fill-opacity:1;fill-rule:nonzero;stroke:none;stroke-width:0;stroke-miterlimit:4;stroke-dasharray:none;stroke-opacity:0" />
      <g
         transform="matrix(0.04033012,0,0,0.04033012,7.7002911,272.18336)"
         id="g1043"
         style="stroke:none">
        <path
           inkscape:connector-curvature="0"
           d="m 224.45312,183.90625 c 0,4.41797 -3.58203,8 -8,8 -4.41796,0 -8,-3.58203 -8,-8 0,-4.41797 3.58204,-8 8,-8 4.41797,0 8,3.58203 8,8 z m 0,0"
           id="path1008"
           style="stroke:none" />
        <path
           inkscape:connector-curvature="0"
           d="m 144.45312,183.90625 c 0,4.41797 -3.58203,8 -8,8 -4.41796,0 -8,-3.58203 -8,-8 0,-4.41797 3.58204,-8 8,-8 4.41797,0 8,3.58203 8,8 z m 0,0"
           id="path1010"
           style="stroke:none" />
        <path
           inkscape:connector-curvature="0"
           d="m 176.45312,263.90625 c 17.64844,0 32,-14.35156 32,-32 h -16 c 0,8.82422 -7.17578,16 -16,16 -8.82421,0 -16,-7.17578 -16,-16 h -16 c 0,17.64844 14.35157,32 32,32 z m 0,0"
           id="path1012"
           style="stroke:none" />
        <path
           inkscape:connector-curvature="0"
           d="m 88.453125,375.90625 h 16.000005 v 16 H 88.453125 Z m 0,0"
           id="path1014"
           style="stroke:none" />
        <path
           inkscape:connector-curvature="0"
           d="m 120.45313,375.90625 h 15.99999 v 16 h -15.99999 z m 0,0"
           id="path1016"
           style="stroke:none" />
        <path
           inkscape:connector-curvature="0"
           d="m 320.45312,324.81641 v -20.91016 h -88 V 280.9375 c 11.3125,-11.10156 19.33594,-25.52734 22.48829,-41.6875 18.96093,-3.12891 33.51171,-19.51172 33.51171,-39.34375 V 97.792969 l 5.13672,-10.261719 c 1.8711,-3.761719 2.86328,-7.960938 2.86328,-12.160156 0,-10.015625 -5.48046,-19.191406 -14.30468,-23.953125 L 195.28516,4.648438 c -11.5586,-6.199219 -26.11329,-6.199219 -37.67188,0 L 70.75,51.425781 c -8.816406,4.753907 -14.296875,13.9375 -14.296875,23.953125 0,4.191406 0.992187,8.398438 2.863281,12.167969 l 5.136719,10.246094 V 199.90625 c 0,19.83203 14.550781,36.21484 33.511719,39.34375 3.152346,16.16016 11.175786,30.58594 22.488286,41.6875 v 22.96875 H 32.453125 v 20.91016 c -19.304687,9.19531 -32,28.71484 -32,50.4414 V 495.90625 H 352.45312 V 375.25781 c 0,-21.72656 -12.69531,-41.24609 -32,-50.4414 z m -48,155.08984 h -88 v -116.6875 l 17.02344,17.02344 14.51953,-20.33594 h 74.07422 c -11.54687,25.60156 -17.61719,53.58203 -17.61719,81.6875 z m -108.55078,-134.76172 -10.42578,10.42578 -23.6875,-33.16015 z m -51.44921,-19.46875 13.02343,18.23047 h -13.02343 z m -16.000005,18.23047 h -16 v -24 h 16 z m 40.457035,16 14.51953,20.33594 17.02343,-17.02344 v 116.6875 H 80.453125 v -38.3125 c 0,-28.10547 -6.070313,-56.08594 -17.617187,-81.6875 z m 119.54296,-16 v -24 h 16 v 24 z m -16,0 h -13.02343 l 13.02343,-18.23047 z m -17.33593,-21.49609 -23.6875,33.16015 -10.42578,-10.42578 z m 81.33593,21.49609 h -16 v -24 h 16 z m -223.999995,-224 v -16 H 272.45312 v 16 z m 158.527345,16 c -3.3125,9.28906 -12.11328,16 -22.52735,16 h -80 c -10.41796,0 -19.21484,-6.71094 -22.52734,-16 z m 17.47265,86.52734 v -45.04687 c 9.28907,3.3125 16,12.10937 16,22.52734 0,10.41406 -6.71093,19.20703 -16,22.51953 z m 16,-54.32031 c -4.67187,-3.53516 -10.05468,-6.18359 -16,-7.39062 v -24.81641 h 16 z M 78.339844,65.515625 165.1875,18.738281 c 6.90625,-3.703125 15.60937,-3.703125 22.51172,0 l 86.86719,46.769531 c 3.6289,1.957032 5.88672,5.742188 5.88672,9.871094 0,1.726563 -0.40625,3.464844 -1.17579,5.007813 l -3.76953,7.519531 H 77.398438 l -3.761719,-7.511719 c -0.777344,-1.558593 -1.183594,-3.296875 -1.183594,-5.015625 0,-4.128906 2.257813,-7.914062 5.886719,-9.863281 z m 18.113281,70.390625 v 24.80859 c -5.945313,1.21485 -11.328125,3.85547 -16,7.39063 v -32.19922 z m -16,64 c 0,-10.41797 6.710937,-19.21484 16,-22.52734 v 45.04687 c -9.289063,-3.30469 -16,-12.10547 -16,-22.51953 z m 32.000005,24 v -64.20703 c 6.70312,5.07812 14.96093,8.20703 23.99999,8.20703 h 80 c 9.03907,0 17.29688,-3.12891 24,-8.20703 v 64.20703 c 0,35.28906 -28.71093,64 -64,64 -35.28906,0 -63.99999,-28.71094 -63.99999,-64 z m 63.99999,80 c 14.57422,0 28.21485,-3.98438 40,-10.82422 V 307.625 l -40,26.67187 -40,-26.67187 v -14.54297 c 11.78516,6.83985 25.42579,10.82422 40,10.82422 z m -127.999995,16 h 16 v 24 h -16 z m -32,55.35156 c 0,-12.79297 6.128906,-24.55859 16,-31.98437 v 16.63281 H 45.0625 c 12.648438,25.28906 19.390625,53.39844 19.390625,81.6875 v 38.3125 h -48 z M 336.45312,479.90625 h -48 v -38.3125 c 0,-28.28906 6.74219,-56.39844 19.39063,-81.6875 h 12.60937 v -16.63281 c 9.8711,7.42578 16,19.18359 16,31.98437 z m 0,0"
           id="path1018"
           style="stroke:none" />
        <path
           inkscape:connector-curvature="0"
           d="m 200.45312,399.90625 h 16 v 16 h -16 z m 0,0"
           id="path1020"
           style="stroke:none" />
        <path
           inkscape:connector-curvature="0"
           d="m 200.45312,439.90625 h 16 v 16 h -16 z m 0,0"
           id="path1022"
           style="stroke:none" />
        <path
           inkscape:connector-curvature="0"
           d="m 176.45312,79.90625 c 10.41407,0 19.21485,-6.710938 22.52735,-16 h 17.47265 v -16 h -17.47265 c -3.3125,-9.289062 -12.11328,-16 -22.52735,-16 -10.41796,0 -19.21484,6.710938 -22.52734,16 h -17.47266 v 16 h 17.47266 c 3.3125,9.289062 12.10938,16 22.52734,16 z m 0,-32 c 4.41407,0 8,3.582031 8,8 0,4.414062 -3.58593,8 -8,8 -4.41796,0 -8,-3.585938 -8,-8 0,-4.417969 3.58204,-8 8,-8 z m 0,0"
           id="path1024"
           style="stroke:none" />
      </g>
    </g>
  </g>
</svg>
